<svg class="h-8 w-auto mt-1 lg:mt-2" xmlns="http://www.w3.org/2000/svg" width="77" height="29"><path d="M14.368 5.048a7.003 7.003 0 0 0-4.667-1.85c-3.933 0-6.319 3.013-6.319 6.817 0 3.039 1.757 6.181 6.319 6.181a6.07 6.07 0 0 0 4.143-1.479v-3.275h-4.69V8.325h7.865v7.792a9.151 9.151 0 0 1-3.277 2.519 9.082 9.082 0 0 1-4.041.812C2.806 19.448 0 14.877 0 10.015 0 4.81 3.226 0 9.701 0a9.657 9.657 0 0 1 6.818 2.828l-2.15 2.22ZM53.841 5.098a7.003 7.003 0 0 0-4.667-1.85c-3.933 0-6.319 3.013-6.319 6.818 0 3.039 1.757 6.181 6.319 6.181a6.07 6.07 0 0 0 4.143-1.479v-3.275h-4.69V8.377h7.865v7.791a9.151 9.151 0 0 1-3.276 2.518 9.081 9.081 0 0 1-4.04.813c-6.895 0-9.7-4.571-9.7-9.434C39.475 4.86 42.7.05 49.175.05a9.656 9.656 0 0 1 6.818 2.828l-2.153 2.22ZM27.052.606v18.336a9.153 9.153 0 0 1-5.706-3.068 9.288 9.288 0 0 1-2.28-6.1c0-2.245.81-4.413 2.28-6.1A9.153 9.153 0 0 1 27.052.606M37.424 9.78a9.288 9.288 0 0 1-2.282 6.098 9.154 9.154 0 0 1-5.705 3.066V.606a9.154 9.154 0 0 1 5.709 3.07 9.288 9.288 0 0 1 2.278 6.105ZM76.8 8.623H58.605a9.267 9.267 0 0 1 3.045-5.75A9.134 9.134 0 0 1 67.703.575c2.227 0 4.378.817 6.052 2.298a9.267 9.267 0 0 1 3.045 5.75M67.696 19.078a9.134 9.134 0 0 1-6.05-2.3 9.268 9.268 0 0 1-3.043-5.752h18.195a9.268 9.268 0 0 1-3.046 5.755 9.134 9.134 0 0 1-6.056 2.297ZM16.796 27.615h-1.125v1.179h-.75v-4.006c.626 0 1.25-.006 1.875-.006a1.397 1.397 0 0 1 1.024.398 1.418 1.418 0 0 1 .429 1.018 1.426 1.426 0 0 1-.429 1.019 1.405 1.405 0 0 1-1.024.398m-1.124-.693h1.124a.702.702 0 0 0 .498-.208.712.712 0 0 0-.498-1.211h-1.125v1.42ZM26.067 28.8v-1.62h-1.954v1.62h-.749v-4.006h.75v1.688h1.953v-1.688h.744V28.8h-.744ZM34.935 28.038h-2.079l-.34.756h-.811l1.782-4.005h.818l1.783 4.006h-.818l-.335-.757Zm-1.039-2.409-.738 1.706h1.474l-.736-1.706ZM44.545 28.796h-.891l-1.16-1.34h-.72v1.34h-.75v-4.012c.63 0 1.26.006 1.89.006a1.31 1.31 0 0 1 1.006.346 1.328 1.328 0 0 1 .425.982c.021.298-.07.594-.257.828a1.177 1.177 0 0 1-.748.43l1.205 1.368v.052Zm-2.771-3.302v1.282h1.14a.634.634 0 0 0 .63-.385.646.646 0 0 0-.372-.862.634.634 0 0 0-.257-.035h-1.141ZM52.916 25.892l-1.294 1.74h-.148l-1.266-1.746v2.912h-.75v-4.006h.864l1.243 1.723 1.243-1.723h.858v4.006h-.75v-2.906ZM61.791 28.038h-2.078l-.34.756h-.813l1.782-4.005h.817l1.783 4.006h-.817l-.334-.757Zm-1.037-2.409-.738 1.706h1.476l-.738-1.706Z"></path></svg>
